<svg version="1.0" xmlns="http://www.w3.org/2000/svg" viewBox="0 0 1440 116" id="address">
  <title>Joshua Sandoval's contact email address.</title>
  <defs>
    <linearGradient id="address-gradient" gradientTransform="rotate(90)">
      <stop offset="0%"  stop-color="#74bf80" />
      <stop offset="100%" stop-color="#2a9186" />
    </linearGradient>
  </defs>
  <path d="M463.5 1c-12.2 1.3-21.5 6-29.7 14.8-6.7 7.3-10 13.3-13.4 24.7-2.3 7.7-2.7 10.9-2.8 22.5-.1 20.3 3.3 31 13.4 41.1 9 9.1 23.2 12.9 40.2 10.8 10.7-1.3 21.8-6.1 21.8-9.4 0-1.2.3-4.3.6-6.8l.7-4.6-8.2 4.2c-7.8 3.9-8.8 4.2-18.5 4.5-14.4.6-20.2-1.2-27-8.2-7.7-7.9-9.1-12.7-9-31.1 0-13.2.3-15.9 2.5-22.5 6.7-20.1 18.4-28.8 37.7-27.8 12.9.7 18.2 4 23.8 14.8 1.2 2.5 1.9 6.6 2.2 14.1.6 13.8-2.2 25.9-6.8 30.2-3.3 3-3.8 3.1-5.9 1.8-1.2-.8-1.1-3.9.8-21.8 1.2-11.4 2.1-21.4 2.1-22.1 0-.8-2-1.2-6.4-1.2-6.8 0-7.6.6-7.6 5.6 0 2.4-.2 2.3-3.8-1.6-3.4-3.5-4.4-4-8.3-4-11.4 0-16.1 7.1-18.5 28.5-1.3 11.2-1.4 14.9-.5 18.3 1.6 5.8 5.7 10.1 10.3 10.9 5.2.8 8.3-.2 12.8-4.3 2.6-2.3 4-3.1 4-2.2 0 3 4.6 6.6 9.4 7.3 9.3 1.4 20.1-5.6 25.1-16.2 6.8-14.2 7.4-37 1.4-51-2.3-5.3-9.2-12.9-14-15.3-6.9-3.6-18-5.1-28.4-4zm7 44c3.2 3.5.5 25-3.4 27.4-2.1 1.3-7.2.9-8.8-.7-2.9-2.9-1.1-23 2.4-26.9 2.2-2.4 7.5-2.3 9.8.2zM127.5 6.9c-7.5 3.5-10.9 8.3-12.2 17.2-2.1 13.4 1.4 21.8 14.1 34.3 12.3 12.1 14.3 14.8 15.6 21.2 1.8 8.7-1 14.3-7.3 14.4-5.9 0-8.7-4-8.7-12.6V77h-15.3l.6 7.5c1.4 16.5 8.2 23.4 23.3 23.5 9.6 0 16.3-3.3 20.2-9.8 2.5-4.4 2.7-5.5 2.7-15.7 0-14.1-1-16.1-16.5-32-10-10.3-11.8-12.7-12.8-16.8-2.4-9.3 1.9-16 9.2-14.1 3.8.9 5.6 4.1 5.6 9.6V34h15v-4.8c0-10.9-4.8-19.1-13.2-22.6-5.2-2.2-15.3-2-20.3.3zM323.7 6.5c-4.8 1.7-8.3 4.8-11 10-1.8 3.2-2.2 5.7-2.2 13 0 12.5 2.5 17.5 15.2 29.8 12.2 11.9 14.8 16.1 14.8 24.5 0 5.5-.3 6.6-2.4 8.3-3.1 2.5-8.1 2.4-10.9-.1-2.2-2-2.8-5.2-2.3-11.8l.2-3.2h-16.2l.7 7.2c1.6 17.8 8.9 24.6 25.4 23.6 6.9-.4 8.7-.9 12.2-3.4 7.8-5.5 11.4-18.1 8.5-29.8-2.1-8.7-5-12.8-16.2-23.7C329 40.7 326 35.7 326 28.8c0-6.2 2.5-9.2 7.5-9.2 5.1 0 7.5 3 7.5 9.5V34h15.3l-.5-7.4c-.7-10-3.8-15.4-11-19-6-3-14.7-3.5-21.1-1.1zM375.2 7.6c-11.6 5.7-15.3 23.5-8 37.9 1.1 2.1 6.8 8.8 12.7 14.7 5.8 6 11.4 12.3 12.3 14.1 1.1 2 1.7 5.5 1.8 9.4 0 5.5-.3 6.4-2.6 8.2-6.9 5.4-13.4.6-13.4-9.9v-5h-15.3l.6 7.8c1 15.9 8.5 23.2 23.4 23.2 16.2-.1 24.3-10 23.1-28.5-.7-10.5-3.3-15.1-16.4-28.5-12-12.3-12.8-13.5-13.8-19.3-1.5-8.2 3.5-14.1 10.1-12 3.5 1.2 5.3 4.5 5.3 10V34h15.3l-.6-6.9c-1.2-14.7-8.9-22.1-23-22.1-4.8 0-7.6.6-11.5 2.6zM570.5 6.5c-4.9 1.7-10.7 8-12.3 13.3-1.6 5.1-1.7 68-.1 73.5 1.3 4.9 6.3 10.5 11.4 12.8 9.3 4.3 24.6 1.4 30-5.6 5-6.6 5.7-12.6 5.3-46.8-.3-29.3-.4-31.5-2.4-35.8-2.6-5.5-5.5-8.5-10.9-11-4.8-2.2-15.2-2.4-21-.4zm13.9 13.6c1.4.7 3 2.5 3.6 4.2 1.4 4 1.4 60.6 0 64.3-2.3 5.9-8.9 7.3-13.1 2.8l-2.4-2.6V57.2c0-33.7.2-35.3 4.8-37.2 3-1.2 4.2-1.2 7.1.1zM626.7 6.5c-4.8 1.7-8.3 4.8-11 10-1.8 3.2-2.2 5.7-2.2 13 0 12.6 1.7 15.9 15.8 30.4 12.8 13.1 15.4 17.6 14.4 25.8-.9 8-8 11.1-13.2 5.8-2.1-2-2.5-3.4-2.5-8.5v-6h-15.3l.5 8.4c.4 7.2.9 9.2 3.4 13.2 4.2 6.8 9.5 9.4 19.3 9.4 13.4 0 20.9-6 23.2-18.5 2.7-14.7-1-23.5-16.2-38.5C631.6 39.8 629 35.6 629 28.6c0-7.3 5-11.1 11.2-8.5 3 1.2 3.9 3.3 4.1 9.8l.2 4.1h15.6l-.6-5.3c-1.5-13.1-6-20.4-14.2-22.6-5.2-1.5-14-1.3-18.6.4zM855.7 6.4c-4.8 1.8-8.3 4.9-11 10.1-1.8 3.2-2.2 5.7-2.2 13 0 12.5 2.4 17.2 15.6 30.1 12.1 11.9 14.3 15.6 14.3 24.2.1 5.5-.2 6.6-2.3 8.3-3.5 2.8-8.5 2.5-11-.7-1.6-2-2.1-4.1-2.1-8.5V77h-7.4c-4.4 0-7.6.4-7.8 1.1-.2.5-.1 4.4.3 8.4.7 9.4 4.3 15.7 10.9 19.3 4 2.1 5.5 2.3 13.1 2 6.2-.3 9.5-.9 11.9-2.4 10.9-6.3 14-24.4 6.8-39.3-1.3-2.7-6.3-8.5-12.5-14.5-11.2-10.9-14.3-15.9-14.3-23 0-5.3 2.2-8.3 6.7-9.2 5.7-1.1 9.2 4.3 8.4 12.8-.2 1.6.8 1.8 7.8 1.8h8.1l-.6-6.3c-.9-9.1-4.3-16-9.6-19.3-3.5-2.2-5.7-2.8-11.8-3.1-4.8-.2-8.9.2-11.3 1.1zM1086.3 7.4c-5.9 2.8-9.5 7.5-11.3 14.6-.8 3.1-1 15.5-.8 37.5.3 31.6.4 33.2 2.5 37 4.4 8.3 10.4 11.5 21.3 11.5s16.9-3.2 21.3-11.5c2.1-3.8 2.2-5.4 2.5-37.7.2-21.9-.1-35.1-.8-37.7-1.6-6-6.7-12.1-12-14.2-6.7-2.7-16.3-2.5-22.7.5zm18 14.7c1.5 1.9 1.7 5.1 1.7 34.6v32.4l-2.5 2.4c-3.2 3.3-7.8 3.3-11 0l-2.5-2.4V57c0-20.8.4-32.8 1.1-34.1 2.3-4.3 9.9-4.7 13.2-.8zM1 56.4V107h14.8c8.1 0 16.3-.5 18.3-1 5.6-1.6 10.1-5.1 12.9-10 2.3-4.1 2.5-5.5 2.5-17 0-11.1-.3-13-2.4-17.3-1.5-3.1-3.5-5.4-5.7-6.5l-3.5-1.8 3.2-2.3C45.9 47.5 48 41.9 48 32c0-10.1-1.2-14.9-4.7-19-4.5-5.4-8.1-6.3-26-6.8L1 5.8v50.6zM30 23c1.7 1.7 2 3.3 2 10.5 0 7.8-.2 8.8-2.5 11-1.9 2-3.4 2.5-7.5 2.5h-5V21h5.5c4.2 0 6 .5 7.5 2zm-.5 39.6c3 1.2 4.5 6 4.5 14.8 0 4.7-.4 9.6-1 11-1 2.8-5.9 4.6-12.2 4.6H17V62h5.4c3 0 6.2.3 7.1.6zM58.2 48.3l.4 42.3 2.8 5.7c4.1 8.5 8.3 11 19.4 11.5 7.6.3 9.3 0 13.2-2 5.6-2.9 9.7-8.7 11-15.7.6-3 1-22.5 1-44.7V6H90v41.7c0 23-.4 42.3-.8 42.9-2.1 3.2-8.4 4.3-11.4 2C74.3 90 74 86.4 74 45.9V6H57.8l.4 42.3zM170 56.5V107h16V6h-16v50.5zM198 56.5V107h14V70.7c0-19.9.4-35.5.9-34.7.4.8 4.8 17.1 9.7 36.2l8.9 34.8H248V6h-14l-.2 30.2-.3 30.3-6.3-25c-3.4-13.8-6.9-27.4-7.8-30.3L217.9 6H198v50.5zM260 56.5V107h43V93h-27V62h21V47h-21V21h27V6h-43v50.5zM530.1 47l.3 40.9-2.4 2.6c-1.9 2-3.3 2.5-7.2 2.5H516v13.8l3.3.6c4.8.9 14.5-1 18.3-3.6 1.8-1.2 4.3-4.1 5.6-6.3 2.3-4 2.3-4.2 2.6-47.8l.3-43.7H529.8l.3 41zM669 56.5V107h16V62h17v45h16V6h-16v41h-17V6h-16v50.5zM729 47.3c0 46.1.3 48.7 6.2 54.4 4.6 4.5 9.6 6.3 17.3 6.3 10.3 0 16.5-3.4 20.8-11.5 2.1-3.9 2.2-5.2 2.5-47.3l.3-43.2h-15l-.3 42.1-.3 42.1-2.4 1.9c-3 2.5-7.2 2.4-10.5-.2l-2.6-2V6h-16v41.3zM791.1 55.7c-4.5 27.4-8.1 50.1-8.1 50.5 0 .5 3.3.8 7.3.8h7.3l1.3-9.2c.6-5 1.4-9.5 1.7-10 .3-.4 4.3-.8 8.9-.8 9.5 0 8.3-1.5 10.5 12.7l1.2 7.3h7.9c4.3 0 7.9-.2 7.9-.5s-3.6-22.7-8-49.8c-4.4-27.1-8-49.6-8-50 0-.4-4.9-.7-10.9-.7h-10.8l-8.2 49.7zm21.9-7.1c1.6 12.1 3 22.8 3 23.7 0 1.4-1.1 1.7-6.5 1.7-7.9 0-7.6 2.3-3.5-26.5 1.6-11.6 3-21.5 3.1-22 .2-2.5 1 2.3 3.9 23.1zM909.5 7.2c-.2.7-3.8 22.7-8 48.8-4.2 26.1-7.9 48.3-8.1 49.2-.5 1.6.3 1.8 6.9 1.8h7.5l1.2-7.3c.6-3.9 1.3-8.5 1.6-10l.6-2.8 8.6.3 8.7.3L930 97l1.5 9.5 8.1.3 8 .3-7.8-48.3c-4.3-26.6-8-49.3-8.3-50.6-.5-2.1-1-2.2-11.1-2.2-7.5 0-10.6.4-10.9 1.2zm14 41.8c1.4 10.7 2.8 20.7 3.1 22.2l.6 2.8h-14.5l.6-3.8c.3-2 1.8-13 3.4-24.4 1.7-12.9 3.1-19.9 3.5-18.5.4 1.2 1.8 11 3.3 21.7zM955 56.5V107h14V70.7c0-19.9.4-35.5.9-34.7.4.8 4.8 17.1 9.7 36.2l8.9 34.8h16.5V6h-14l-.2 30.2-.3 30.3-6.3-25c-3.4-13.8-6.9-27.4-7.8-30.3L974.9 6H955v50.5zM1017 56.6v50.6l16.3-.4c15.6-.3 16.4-.4 20.9-3 3.4-2.1 5.3-4.1 7.2-8l2.6-5.2v-33c0-20.3-.4-34.6-1.1-36.9-.6-2.1-2.6-5.6-4.6-7.8-5-5.5-10.4-6.9-27.5-6.9H1017v50.6zm28.9-33.7c2.8 2.8 3.3 9.2 2.9 38.8-.4 30.6-.1 30-10.1 31l-5.7.6V21h5.5c4.1 0 6 .5 7.4 1.9zM1128.3 7.7c.3 1 3.8 23.7 7.8 50.5l7.3 48.8h21.2l7.3-48.3c4-26.5 7.5-49.2 7.8-50.5.5-2.1.3-2.2-7.1-2.2-4.2 0-7.6.4-7.6.8 0 2-9.9 75.4-10.2 75.7-.2.2-2.5-16.4-5.2-36.8-2.7-20.5-5.1-37.8-5.4-38.5-.3-.8-2.9-1.2-8.4-1.2-7.1 0-7.9.2-7.5 1.7zM1195.5 7.2c-.2.7-3.8 22.7-8 48.8-4.2 26.1-7.9 48.3-8.1 49.2-.5 1.6.3 1.8 7 1.8 4.2 0 7.6-.3 7.6-.8 0-1 1.9-13.1 2.6-16.5l.6-2.8 8.6.3 8.7.3 1.5 9.5 1.5 9.5 8.1.3 8 .3-7.8-48.3c-4.3-26.6-8-49.3-8.3-50.6-.5-2.1-1-2.2-11.1-2.2-7.5 0-10.6.4-10.9 1.2zm13.6 39.5c1.5 11.4 3.1 22.3 3.4 24l.6 3.3h-14.4l.6-3.8c.3-2 1.8-13 3.4-24.4 1.5-11.3 3-20.5 3.1-20.3.2.2 1.7 9.7 3.3 21.2zM1241 56.5V107h42V93h-26V6h-16v50.5zM1319 56.5V107h14l.2-37.8.3-37.7 5.3 36c3 19.8 5.6 36.8 5.9 37.7.7 2.6 12.9 2.6 13.7 0 .2-.9 2.8-17.9 5.8-37.6l5.3-35.9.3 37.7.2 37.6h15V6H1362.3l-4.9 35c-2.7 19.2-5.1 34.6-5.5 34.2-.3-.4-2.3-12.9-4.3-27.7-2.1-14.9-4.2-30.3-4.8-34.3l-1-7.2H1319v50.5zM1397 56.5V107h43V93h-27V62h21V47h-21V21h27V6h-43v50.5zM1292 99.5v7.5h15V92h-15v7.5z"/>
</svg>